<svg xmlns="http://www.w3.org/2000/svg" viewBox="0 0 24 24" fill="currentColor">
  <path d="M3 0C1.338 0 0 1.338 0 3v18c0 1.662 1.338 3 3 3h18c1.662 0 3-1.338 3-3V3c0-1.662-1.338-3-3-3H3Zm6.883 6.25c.63 0 1.005.3 1.125.9l1.463 8.303c.465-.615.846-1.133 1.146-1.553.465-.66.893-1.418 1.283-2.273.405-.855.608-1.62.608-2.295 0-.405-.113-.727-.338-.967-.21-.255-.608-.577-1.193-.968.705-.675 1.395-1.013 2.07-1.013.48 0 .878.165 1.193.495.315.315.472.795.472 1.44 0 .93-.263 1.905-.788 2.925-.525 1.02-1.349 2.28-2.474 3.78l-1.755 2.393c-.345.465-.615.787-.81.967-.18.165-.42.247-.72.247-.33 0-.57-.075-.72-.225-.135-.165-.24-.518-.315-1.057L8.085 7.607c-.09-.57.03-.855.36-.855h1.438Z"/>
</svg>
